<?xml version="1.0" encoding="UTF-8"?>
<!DOCTYPE svg PUBLIC "-//W3C//DTD SVG 1.1//EN" "http://www.w3.org/Graphics/SVG/1.1/DTD/svg11.dtd">
<svg xmlns="http://www.w3.org/2000/svg" version="1.1" width="515px" height="411px" style="shape-rendering:geometricPrecision; text-rendering:geometricPrecision; image-rendering:optimizeQuality; fill-rule:evenodd; clip-rule:evenodd" xmlns:xlink="http://www.w3.org/1999/xlink">
<g><path style="opacity:0.98" fill="#00a7dd" d="M 251.5,22.5 C 211.219,31.7212 177.719,52.0545 151,83.5C 144.781,91.9426 139.615,100.943 135.5,110.5C 125.993,70.8594 139.993,43.0261 177.5,27C 201.753,18.9059 226.42,17.4059 251.5,22.5 Z"/></g>
<g><path style="opacity:0.988" fill="#637a95" d="M 367.5,110.5 C 354.397,82.823 334.73,60.9896 308.5,45C 290.891,34.6357 272.224,27.1357 252.5,22.5C 277.67,17.7502 302.337,19.5835 326.5,28C 362.443,44.3861 376.11,71.8861 367.5,110.5 Z"/></g>
<g><path style="opacity:0.989" fill="#005f7e" d="M 251.5,22.5 C 251.833,22.5 252.167,22.5 252.5,22.5C 272.224,27.1357 290.891,34.6357 308.5,45C 334.73,60.9896 354.397,82.823 367.5,110.5C 367.5,110.833 367.5,111.167 367.5,111.5C 355.011,144.168 333.344,169.001 302.5,186C 286.868,194.592 270.535,201.092 253.5,205.5C 252.833,205.5 252.167,205.5 251.5,205.5C 210.341,196.468 176.841,175.468 151,142.5C 144.238,132.977 139.072,122.643 135.5,111.5C 135.5,111.167 135.5,110.833 135.5,110.5C 139.615,100.943 144.781,91.9426 151,83.5C 177.719,52.0545 211.219,31.7212 251.5,22.5 Z M 167.5,93.5 C 172.973,80.1848 181.64,69.3514 193.5,61C 205.689,52.8978 219.023,48.2312 233.5,47C 205.77,54.5921 183.77,70.0921 167.5,93.5 Z M 246.5,76.5 C 252.728,76.2127 258.728,77.2127 264.5,79.5C 258.016,91.8467 261.35,99.8467 274.5,103.5C 279.248,103.21 283.081,101.21 286,97.5C 295.657,120.2 290.157,138.367 269.5,152C 247.151,160.994 229.318,155.494 216,135.5C 207.125,114.497 211.625,96.997 229.5,83C 235.02,80.11 240.686,77.9433 246.5,76.5 Z M 334.5,124.5 C 327.116,150.717 310.783,168.883 285.5,179C 283.553,179.991 281.553,180.325 279.5,180C 304.077,167.59 322.41,149.09 334.5,124.5 Z"/></g>
<g><path style="opacity:0.985" fill="#637a95" d="M 135.5,111.5 C 139.072,122.643 144.238,132.977 151,142.5C 176.841,175.468 210.341,196.468 251.5,205.5C 239.783,208.109 227.783,209.609 215.5,210C 190.337,226.073 163.67,234.406 135.5,235C 149.465,228.943 161.298,220.11 171,208.5C 172.707,206.091 173.54,203.425 173.5,200.5C 145.767,189.744 131.101,169.411 129.5,139.5C 129.605,129.634 131.605,120.3 135.5,111.5 Z"/></g>
<g><path style="opacity:0.982" fill="#00a7dd" d="M 367.5,111.5 C 380.901,152.862 367.901,182.696 328.5,201C 331.107,208.202 335.441,214.202 341.5,219C 349.994,225.417 358.994,231.083 368.5,236C 339.593,234.142 312.926,225.475 288.5,210C 276.593,209.226 264.927,207.726 253.5,205.5C 270.535,201.092 286.868,194.592 302.5,186C 333.344,169.001 355.011,144.168 367.5,111.5 Z"/></g>
<g><path style="opacity:0.962" fill="#005f7e" d="M 302.5,290.5 C 309.841,290.334 317.174,290.5 324.5,291C 326.004,292.491 326.837,294.324 327,296.5C 327.333,302.5 327.667,308.5 328,314.5C 339.549,306.345 350.549,307.011 361,316.5C 361.862,318.087 362.529,319.754 363,321.5C 363.82,332.41 363.653,343.243 362.5,354C 354.167,354.667 345.833,354.667 337.5,354C 336.681,345.245 336.181,336.411 336,327.5C 332.844,324.601 330.178,324.935 328,328.5C 327.667,336.167 327.333,343.833 327,351.5C 326.692,352.308 326.192,352.975 325.5,353.5C 317.549,354.635 309.549,354.802 301.5,354C 301,353.5 300.5,353 300,352.5C 299.333,333.167 299.333,313.833 300,294.5C 300.662,293.016 301.496,291.683 302.5,290.5 Z"/></g>
<g><path style="opacity:0.965" fill="#005e7e" d="M 254.5,291.5 C 265.289,290.975 275.955,291.808 286.5,294C 292.365,298.204 293.032,303.204 288.5,309C 284.513,309.172 280.513,309.006 276.5,308.5C 267.401,308.602 263.067,313.269 263.5,322.5C 263.089,327.509 264.756,331.676 268.5,335C 275.394,336.26 282.394,336.926 289.5,337C 293.413,342.031 293.413,347.031 289.5,352C 277.452,355.746 265.118,357.079 252.5,356C 234.989,353.325 226.322,343.158 226.5,325.5C 226.432,306.253 235.765,294.92 254.5,291.5 Z"/></g>
<g><path style="opacity:0.972" fill="#005e7e" d="M 29.5,293.5 C 44.837,293.333 60.1703,293.5 75.5,294C 87.1015,298.155 93.4348,306.488 94.5,319C 94.3012,328.081 90.3012,334.748 82.5,339C 75.8045,339.956 69.1378,340.956 62.5,342C 61.8013,345.8 61.1347,349.633 60.5,353.5C 49.5151,354.666 38.5151,354.832 27.5,354C 26.8742,353.25 26.3742,352.416 26,351.5C 24.0201,333.498 24.0201,315.498 26,297.5C 26.6897,295.65 27.8564,294.316 29.5,293.5 Z M 61.5,310.5 C 71.3721,310.527 74.8721,315.194 72,324.5C 69.57,327.214 66.57,328.881 63,329.5C 61.5446,323.347 61.0446,317.014 61.5,310.5 Z"/></g>
<g><path style="opacity:0.971" fill="#005e7e" d="M 104.5,293.5 C 114.506,293.334 124.506,293.5 134.5,294C 135.333,294.833 136.167,295.667 137,296.5C 138.529,312.134 138.862,327.801 138,343.5C 137.934,347.233 137.101,350.733 135.5,354C 125.167,354.667 114.833,354.667 104.5,354C 104,353.5 103.5,353 103,352.5C 101.361,334.591 101.027,316.591 102,298.5C 102.366,296.548 103.199,294.882 104.5,293.5 Z"/></g>
<g><path style="opacity:0.975" fill="#005e7e" d="M 150.5,293.5 C 156.593,293.139 162.593,293.639 168.5,295C 179.285,301.059 190.285,306.559 201.5,311.5C 201.334,306.156 201.501,300.823 202,295.5C 202.5,295 203,294.5 203.5,294C 208.5,293.333 213.5,293.333 218.5,294C 219,294.5 219.5,295 220,295.5C 220.667,314.167 220.667,332.833 220,351.5C 219.626,352.416 219.126,353.25 218.5,354C 210.833,354.667 203.167,354.667 195.5,354C 186.826,348.328 177.826,343.161 168.5,338.5C 167.672,343.132 167.172,347.798 167,352.5C 166.5,353 166,353.5 165.5,354C 160.167,354.667 154.833,354.667 149.5,354C 149,353.5 148.5,353 148,352.5C 147.333,333.833 147.333,315.167 148,296.5C 148.698,295.309 149.531,294.309 150.5,293.5 Z"/></g>
<g><path style="opacity:0.953" fill="#005e7e" d="M 459.5,297.5 C 463.571,297.234 467.571,297.567 471.5,298.5C 472.491,302.445 472.824,306.445 472.5,310.5C 476.846,310.334 481.179,310.501 485.5,311C 487.745,313.896 488.078,317.063 486.5,320.5C 482.153,321.222 477.82,321.888 473.5,322.5C 472.338,327.131 472.172,331.798 473,336.5C 477.205,341.104 482.038,341.771 487.5,338.5C 488.167,338.833 488.833,339.167 489.5,339.5C 490.593,343.108 490.76,346.775 490,350.5C 488.829,351.893 487.329,352.727 485.5,353C 473.458,355.744 461.792,354.744 450.5,350C 448.383,348.269 446.883,346.102 446,343.5C 444.878,336.551 444.211,329.551 444,322.5C 438.858,321.105 437.192,317.772 439,312.5C 440.932,310.962 443.099,309.795 445.5,309C 450.065,304.925 454.732,301.091 459.5,297.5 Z"/></g>
<g><path style="opacity:0.956" fill="#005e7e" d="M 391.5,308.5 C 400.226,308.161 408.893,308.661 417.5,310C 424.667,311.833 429.167,316.333 431,323.5C 431.667,333.167 431.667,342.833 431,352.5C 430.5,353 430,353.5 429.5,354C 420.833,354.667 412.167,354.667 403.5,354C 402.953,353.075 402.287,352.242 401.5,351.5C 399.446,353.194 397.112,354.361 394.5,355C 387.946,356.081 381.612,355.414 375.5,353C 368.688,345.12 369.021,337.453 376.5,330C 379.363,328.601 382.363,327.601 385.5,327C 391.339,326.617 397.006,326.451 402.5,326.5C 401.966,324.386 400.966,322.552 399.5,321C 392.826,319.664 386.659,320.831 381,324.5C 376.555,321.663 375.722,317.996 378.5,313.5C 382.691,311.218 387.025,309.551 391.5,308.5 Z M 398.5,333.5 C 401.359,333.801 402.693,335.467 402.5,338.5C 402.902,343.069 400.902,344.569 396.5,343C 393.523,339.053 394.189,335.886 398.5,333.5 Z"/></g>
</svg>
